<svg viewBox="0 0 24 24" width="24" height="24" fill="none" xmlns="http://www.w3.org/2000/svg">
        <style>
            @keyframes slide-right {
                0% {
                    transform: translateX(0)
                }

                to {
                    transform: translateX(8px)
                }
            }

            @keyframes slide-left {
                0% {
                    transform: translateX(0)
                }

                to {
                    transform: translateX(-8px)
                }
            }
        </style>
        <path d="M5 8.5a.5.5 0 01.5-.5h13a.5.5 0 01.5.5v1a.5.5 0 01-.5.5h-13a.5.5 0 01-.5-.5v-1zm0 6a.5.5 0 01.5-.5h13a.5.5 0 01.5.5v1a.5.5 0 01-.5.5h-13a.5.5 0 01-.5-.5v-1z" fill="#242424" />
        <circle cx="8" cy="9" r="2.5" fill="#fff" stroke="#242424" style="animation:slide-right 2s cubic-bezier(1,.01,.05,1.02) both alternate infinite" />
        <circle cx="16" cy="15" r="2.5" fill="#fff" stroke="#242424" style="animation:slide-left 2s cubic-bezier(1,.01,.05,1.02) both alternate infinite" />
    </svg>